<svg xmlns="http://www.w3.org/2000/svg" width="900" height="280" viewBox="0 0 900 280">
<style>
  text { font-family: Consolas, 'SF Mono', Menlo, 'DejaVu Sans Mono', 'Courier New', monospace; }
  .f { opacity: 0; animation: in .4s ease-out forwards; }
  .grow { transform-box: fill-box; transform-origin: bottom; transform: scaleY(0); animation: grow .6s ease-out forwards; }
  .fill { transform: scaleX(0); animation: fill .9s ease-out forwards; }
  @keyframes in { to { opacity: 1; } }
  @keyframes grow { to { transform: scaleY(1); } }
  @keyframes fill { to { transform: scaleX(1); } }
</style>
<defs><filter id="glow" x="-50%" y="-50%" width="200%" height="200%"><feGaussianBlur stdDeviation="2" result="b"/><feMerge><feMergeNode in="b"/><feMergeNode in="SourceGraphic"/></feMerge></filter></defs>
<rect x="1" y="1" width="898" height="278" rx="12" fill="#0d1117" stroke="#00ff9c" stroke-opacity=".45"/>
<path d="M1 13a12 12 0 0 1 12-12h874a12 12 0 0 1 12 12v21H1z" fill="#161b22"/>
<circle cx="22" cy="18" r="6" fill="#ff5f56"/><circle cx="42" cy="18" r="6" fill="#ffbd2e"/><circle cx="62" cy="18" r="6" fill="#27c93f"/>
<text x="450.0" y="23" text-anchor="middle" font-size="12" fill="#8b949e">activity — zsh</text>
<text x="24" y="62" font-size="14"><tspan fill="#00ff9c">krishmal@github</tspan><tspan fill="#c9d1d9">:</tspan><tspan fill="#58a6ff">~</tspan><tspan fill="#c9d1d9">$ contributions --graph --days 60</tspan></text>
<line x1="60" y1="225.0" x2="870" y2="225.0" stroke="#30363d" stroke-dasharray="0"/><text x="50" y="229.0" font-size="11" fill="#8b949e" text-anchor="end">0</text>
<line x1="60" y1="190.0" x2="870" y2="190.0" stroke="#30363d" stroke-dasharray="3 4"/><text x="50" y="194.0" font-size="11" fill="#8b949e" text-anchor="end">18</text>
<line x1="60" y1="155.0" x2="870" y2="155.0" stroke="#30363d" stroke-dasharray="3 4"/><text x="50" y="159.0" font-size="11" fill="#8b949e" text-anchor="end">37</text>
<line x1="60" y1="120.0" x2="870" y2="120.0" stroke="#30363d" stroke-dasharray="3 4"/><text x="50" y="124.0" font-size="11" fill="#8b949e" text-anchor="end">56</text>
<line x1="60" y1="85.0" x2="870" y2="85.0" stroke="#30363d" stroke-dasharray="3 4"/><text x="50" y="89.0" font-size="11" fill="#8b949e" text-anchor="end">74</text>
<rect class="grow" style="animation-delay:0.01s" x="75.5" y="213.6" width="9.5" height="11.4" rx="2" fill="#00ff9c" fill-opacity="0.40"/>
<rect class="grow" style="animation-delay:0.03s" x="89.0" y="181.5" width="9.5" height="43.5" rx="2" fill="#00ff9c" fill-opacity="0.55"/>
<rect class="grow" style="animation-delay:0.04s" x="102.5" y="85.0" width="9.5" height="140.0" rx="2" fill="#00ff9c" fill-opacity="1.00"/>
<rect class="grow" style="animation-delay:0.06s" x="116.0" y="185.3" width="9.5" height="39.7" rx="2" fill="#00ff9c" fill-opacity="0.53"/>
<rect class="grow" style="animation-delay:0.07s" x="129.5" y="211.8" width="9.5" height="13.2" rx="2" fill="#00ff9c" fill-opacity="0.41"/>
<rect class="grow" style="animation-delay:0.09s" x="143.0" y="168.2" width="9.5" height="56.8" rx="2" fill="#00ff9c" fill-opacity="0.61"/>
<rect class="grow" style="animation-delay:0.10s" x="156.5" y="200.4" width="9.5" height="24.6" rx="2" fill="#00ff9c" fill-opacity="0.46"/>
<rect class="grow" style="animation-delay:0.12s" x="170.0" y="170.1" width="9.5" height="54.9" rx="2" fill="#00ff9c" fill-opacity="0.60"/>
<rect class="grow" style="animation-delay:0.14s" x="183.5" y="219.3" width="9.5" height="5.7" rx="2" fill="#00ff9c" fill-opacity="0.38"/>
<rect class="grow" style="animation-delay:0.16s" x="210.5" y="196.6" width="9.5" height="28.4" rx="2" fill="#00ff9c" fill-opacity="0.48"/>
<rect class="grow" style="animation-delay:0.18s" x="224.0" y="198.5" width="9.5" height="26.5" rx="2" fill="#00ff9c" fill-opacity="0.47"/>
<rect class="grow" style="animation-delay:0.20s" x="237.5" y="194.7" width="9.5" height="30.3" rx="2" fill="#00ff9c" fill-opacity="0.49"/>
<rect class="grow" style="animation-delay:0.21s" x="251.0" y="183.4" width="9.5" height="41.6" rx="2" fill="#00ff9c" fill-opacity="0.54"/>
<rect class="grow" style="animation-delay:0.22s" x="264.5" y="213.6" width="9.5" height="11.4" rx="2" fill="#00ff9c" fill-opacity="0.40"/>
<rect class="grow" style="animation-delay:0.24s" x="278.0" y="215.5" width="9.5" height="9.5" rx="2" fill="#00ff9c" fill-opacity="0.39"/>
<rect class="grow" style="animation-delay:0.26s" x="291.5" y="223.1" width="9.5" height="1.9" rx="2" fill="#00ff9c" fill-opacity="0.36"/>
<rect class="grow" style="animation-delay:0.27s" x="305.0" y="204.2" width="9.5" height="20.8" rx="2" fill="#00ff9c" fill-opacity="0.45"/>
<rect class="grow" style="animation-delay:0.28s" x="318.5" y="223.1" width="9.5" height="1.9" rx="2" fill="#00ff9c" fill-opacity="0.36"/>
<rect class="grow" style="animation-delay:0.33s" x="359.0" y="223.1" width="9.5" height="1.9" rx="2" fill="#00ff9c" fill-opacity="0.36"/>
<rect class="grow" style="animation-delay:0.34s" x="372.5" y="221.2" width="9.5" height="3.8" rx="2" fill="#00ff9c" fill-opacity="0.37"/>
<rect class="grow" style="animation-delay:0.39s" x="413.0" y="211.8" width="9.5" height="13.2" rx="2" fill="#00ff9c" fill-opacity="0.41"/>
<rect class="grow" style="animation-delay:0.40s" x="426.5" y="217.4" width="9.5" height="7.6" rx="2" fill="#00ff9c" fill-opacity="0.39"/>
<rect class="grow" style="animation-delay:0.43s" x="453.5" y="223.1" width="9.5" height="1.9" rx="2" fill="#00ff9c" fill-opacity="0.36"/>
<rect class="grow" style="animation-delay:0.45s" x="467.0" y="215.5" width="9.5" height="9.5" rx="2" fill="#00ff9c" fill-opacity="0.39"/>
<rect class="grow" style="animation-delay:0.49s" x="507.5" y="202.3" width="9.5" height="22.7" rx="2" fill="#00ff9c" fill-opacity="0.46"/>
<rect class="grow" style="animation-delay:0.51s" x="521.0" y="103.9" width="9.5" height="121.1" rx="2" fill="#00ff9c" fill-opacity="0.91"/>
<rect class="grow" style="animation-delay:0.54s" x="548.0" y="192.8" width="9.5" height="32.2" rx="2" fill="#00ff9c" fill-opacity="0.50"/>
<rect class="grow" style="animation-delay:0.55s" x="561.5" y="155.0" width="9.5" height="70.0" rx="2" fill="#00ff9c" fill-opacity="0.68"/>
<rect class="grow" style="animation-delay:0.57s" x="575.0" y="187.2" width="9.5" height="37.8" rx="2" fill="#00ff9c" fill-opacity="0.53"/>
<rect class="grow" style="animation-delay:0.58s" x="588.5" y="221.2" width="9.5" height="3.8" rx="2" fill="#00ff9c" fill-opacity="0.37"/>
<rect class="grow" style="animation-delay:0.60s" x="602.0" y="223.1" width="9.5" height="1.9" rx="2" fill="#00ff9c" fill-opacity="0.36"/>
<rect class="grow" style="animation-delay:0.65s" x="642.5" y="190.9" width="9.5" height="34.1" rx="2" fill="#00ff9c" fill-opacity="0.51"/>
<rect class="grow" style="animation-delay:0.66s" x="656.0" y="200.4" width="9.5" height="24.6" rx="2" fill="#00ff9c" fill-opacity="0.46"/>
<rect class="grow" style="animation-delay:0.67s" x="669.5" y="158.8" width="9.5" height="66.2" rx="2" fill="#00ff9c" fill-opacity="0.66"/>
<rect class="grow" style="animation-delay:0.69s" x="683.0" y="209.9" width="9.5" height="15.1" rx="2" fill="#00ff9c" fill-opacity="0.42"/>
<rect class="grow" style="animation-delay:0.70s" x="696.5" y="209.9" width="9.5" height="15.1" rx="2" fill="#00ff9c" fill-opacity="0.42"/>
<rect class="grow" style="animation-delay:0.72s" x="710.0" y="209.9" width="9.5" height="15.1" rx="2" fill="#00ff9c" fill-opacity="0.42"/>
<rect class="grow" style="animation-delay:0.73s" x="723.5" y="204.2" width="9.5" height="20.8" rx="2" fill="#00ff9c" fill-opacity="0.45"/>
<rect class="grow" style="animation-delay:0.75s" x="737.0" y="223.1" width="9.5" height="1.9" rx="2" fill="#00ff9c" fill-opacity="0.36"/>
<rect class="grow" style="animation-delay:0.77s" x="750.5" y="221.2" width="9.5" height="3.8" rx="2" fill="#00ff9c" fill-opacity="0.37"/>
<rect class="grow" style="animation-delay:0.78s" x="764.0" y="211.8" width="9.5" height="13.2" rx="2" fill="#00ff9c" fill-opacity="0.41"/>
<rect class="grow" style="animation-delay:0.79s" x="777.5" y="175.8" width="9.5" height="49.2" rx="2" fill="#00ff9c" fill-opacity="0.58"/>
<rect class="grow" style="animation-delay:0.81s" x="791.0" y="179.6" width="9.5" height="45.4" rx="2" fill="#00ff9c" fill-opacity="0.56"/>
<rect class="grow" style="animation-delay:0.82s" x="804.5" y="206.1" width="9.5" height="18.9" rx="2" fill="#00ff9c" fill-opacity="0.44"/>
<rect class="grow" style="animation-delay:0.84s" x="818.0" y="179.6" width="9.5" height="45.4" rx="2" fill="#00ff9c" fill-opacity="0.56"/>
<rect class="grow" style="animation-delay:0.85s" x="831.5" y="204.2" width="9.5" height="20.8" rx="2" fill="#00ff9c" fill-opacity="0.45"/>
<rect class="grow" style="animation-delay:0.87s" x="845.0" y="204.2" width="9.5" height="20.8" rx="2" fill="#00ff9c" fill-opacity="0.45"/>
<rect class="grow" style="animation-delay:0.89s" x="858.5" y="175.8" width="9.5" height="49.2" rx="2" fill="#00ff9c" fill-opacity="0.58"/>
<polyline class="f" style="animation-delay:1.1s" points="66.8,225.0 80.2,213.6 93.8,181.5 107.2,85.0 120.8,185.3 134.2,211.8 147.8,168.2 161.2,200.4 174.8,170.1 188.2,219.3 201.8,225.0 215.2,196.6 228.8,198.5 242.2,194.7 255.8,183.4 269.2,213.6 282.8,215.5 296.2,223.1 309.8,204.2 323.2,223.1 336.8,225.0 350.2,225.0 363.8,223.1 377.2,221.2 390.8,225.0 404.2,225.0 417.8,211.8 431.2,217.4 444.8,225.0 458.2,223.1 471.8,215.5 485.2,225.0 498.8,225.0 512.2,202.3 525.8,103.9 539.2,225.0 552.8,192.8 566.2,155.0 579.8,187.2 593.2,221.2 606.8,223.1 620.2,225.0 633.8,225.0 647.2,190.9 660.8,200.4 674.2,158.8 687.8,209.9 701.2,209.9 714.8,209.9 728.2,204.2 741.8,223.1 755.2,221.2 768.8,211.8 782.2,175.8 795.8,179.6 809.2,206.1 822.8,179.6 836.2,204.2 849.8,204.2 863.2,175.8" fill="none" stroke="#00ff9c" stroke-width="1.5" filter="url(#glow)"/>
<text x="60" y="245" font-size="11" fill="#8b949e">2026-08-01</text><text x="870" y="245" font-size="11" fill="#8b949e" text-anchor="end">2026-09-29</text><text x="450.0" y="245" font-size="12" fill="#c9d1d9" text-anchor="middle">713 contributions · peak 74/day</text>
<text x="876" y="268" font-size="11" fill="#484f58" text-anchor="end">updated 2026-09-29</text>
</svg>
